<svg id="Layer_1" data-name="Layer 1" xmlns="http://www.w3.org/2000/svg" viewBox="0 0 59 47"><defs><style>.cls-1{fill:#fff;stroke:#fff;stroke-miterlimit:10;}</style></defs><g id="surface2024526"><path class="cls-1" d="M45.5.5a13,13,0,0,0-12.64,10H5.5a5,5,0,0,0-5,5v26a5,5,0,0,0,5,5h36a5,5,0,0,0,5-5v-15h2v-2h-3a11,11,0,1,1,11-11v3a2,2,0,0,1-4,0v-3a7,7,0,1,0-1.69,4.55A4,4,0,0,0,58.5,16.5v-3A13,13,0,0,0,45.5.5ZM2.5,15.61,14.59,25.5,2.5,35.39Zm42,25.89a3,3,0,0,1-3,3H5.5a3,3,0,0,1-3-3V38L16.17,26.79l4.17,3.41a5,5,0,0,0,6.32,0l4.18-3.41L44.5,38Zm0-15v8.94L32.41,25.5,36,22.38A12.94,12.94,0,0,0,44.5,26.45Zm-9.73-5.63L25.4,28.65a3,3,0,0,1-3.8,0L3.2,13.6a3,3,0,0,1,2.3-1.1H32.55c0,.33,0,.66,0,1A12.92,12.92,0,0,0,34.77,20.82ZM45.5,18.5a5,5,0,1,1,5-5A5,5,0,0,1,45.5,18.5Z"/></g></svg>