<svg id="Layer_1" data-name="Layer 1" xmlns="http://www.w3.org/2000/svg" viewBox="0 0 36 60"><defs><style>.cls-1{fill:#fff;}</style></defs><g id="surface2036801"><path class="cls-1" d="M5,0A5,5,0,0,0,0,5V55a5,5,0,0,0,5,5H31a5,5,0,0,0,5-5V5a5,5,0,0,0-5-5ZM5,2H31a3,3,0,0,1,3,3V6H23a1,1,0,0,0,0,2H34V48H2V8H13a1,1,0,0,0,0-2H2V5A3,3,0,0,1,5,2ZM17,6a1,1,0,0,0,0,2h2a1,1,0,0,0,0-2ZM5,40a1,1,0,0,0-1,1v2a1,1,0,0,0,2,0V41A1,1,0,0,0,5,40Zm5,0a1,1,0,0,0-1,1v2a1,1,0,0,0,2,0V41A1,1,0,0,0,10,40Zm5,0a1,1,0,0,0-1,1v2a1,1,0,0,0,2,0V41A1,1,0,0,0,15,40Zm6,0a1,1,0,0,0-1,1v2a1,1,0,0,0,2,0V41A1,1,0,0,0,21,40Zm5,0a1,1,0,0,0-1,1v2a1,1,0,0,0,2,0V41A1,1,0,0,0,26,40Zm5,0a1,1,0,0,0-1,1v2a1,1,0,0,0,2,0V41A1,1,0,0,0,31,40ZM2,50H34v5a3,3,0,0,1-3,3H5a3,3,0,0,1-3-3Zm13,2a1,1,0,0,0,0,2h6a1,1,0,0,0,0-2Z"/></g></svg>